JosefinSlab-Bold.ufo
<glyph name="period" format="2">
  <advance width="163"/>
  <unicode hex="002E"/>
  <outline>
    <contour>
      <point x="136" y="52" type="qcurve" smooth="yes"/>
      <point x="136" y="29"/>
      <point x="104" y="0"/>
      <point x="85" y="0" type="qcurve" smooth="yes"/>
      <point x="65" y="0"/>
      <point x="33" y="29"/>
      <point x="33" y="52" type="qcurve" smooth="yes"/>
      <point x="33" y="75"/>
      <point x="65" y="105"/>
      <point x="85" y="105" type="qcurve" smooth="yes"/>
      <point x="104" y="105"/>
      <point x="136" y="75"/>
    </contour>
  </outline>
</glyph>
<glyph name="slash" format="2">
  <advance width="380"/>
  <unicode hex="002F"/>
  <outline>
    <contour>
      <point x="101" y="-19" type="qcurve"/>
      <point x="17" y="-19" type="line"/>
      <point x="87" y="171"/>
      <point x="225" y="546"/>
      <point x="295" y="736" type="qcurve"/>
      <point x="379" y="736" type="line"/>
      <point x="309" y="546"/>
      <point x="171" y="171"/>
    </contour>
  </outline>
</glyph>
<glyph name="one" format="2">
  <advance width="290"/>
  <unicode hex="0031"/>
  <outline>
    <contour>
      <point x="265" y="0" type="line"/>
      <point x="23" y="0" type="line"/>
      <point x="23" y="79" type="line"/>
      <point x="102" y="79" type="line"/>
      <point x="102" y="569" type="line"/>
      <point x="34" y="569" type="line"/>
      <point x="34" y="650" type="line"/>
      <point x="186" y="650" type="line"/>
      <point x="186" y="79" type="line"/>
      <point x="265" y="79" type="line"/>
    </contour>
  </outline>
</glyph>
<glyph name="two" format="2">
  <advance width="554"/>
  <unicode hex="0032"/>
  <outline>
    <contour>
      <point x="484" y="0" type="line"/>
      <point x="41" y="0" type="line"/>
      <point x="103" y="62"/>
      <point x="219" y="179"/>
      <point x="264" y="234" type="qcurve" smooth="yes" name="inserted"/>
      <point x="309" y="288"/>
      <point x="363" y="391"/>
      <point x="363" y="438" type="qcurve" smooth="yes"/>
      <point x="363" y="475"/>
      <point x="339" y="527"/>
      <point x="321" y="544" type="qcurve" smooth="yes" name="inserted"/>
      <point x="302" y="561"/>
      <point x="259" y="577"/>
      <point x="241" y="577" type="qcurve" smooth="yes"/>
      <point x="203" y="577"/>
      <point x="155" y="551"/>
      <point x="141" y="532" type="qcurve" smooth="yes" name="inserted"/>
      <point x="127" y="513"/>
      <point x="116" y="471"/>
      <point x="116" y="455" type="qcurve" smooth="yes"/>
      <point x="116" y="422"/>
      <point x="136" y="371"/>
      <point x="155" y="351" type="qcurve"/>
      <point x="105" y="300" type="line"/>
      <point x="71" y="322"/>
      <point x="32" y="405"/>
      <point x="32" y="455" type="qcurve" smooth="yes"/>
      <point x="32" y="495"/>
      <point x="59" y="569"/>
      <point x="86" y="597" type="qcurve" smooth="yes" name="inserted"/>
      <point x="112" y="625"/>
      <point x="190" y="658"/>
      <point x="241" y="658" type="qcurve" smooth="yes"/>
      <point x="287" y="658"/>
      <point x="363" y="624"/>
      <point x="390" y="596" type="qcurve" smooth="yes" name="inserted"/>
      <point x="417" y="567"/>
      <point x="447" y="492"/>
      <point x="447" y="450" type="qcurve" smooth="yes"/>
      <point x="447" y="400"/>
      <point x="412" y="307"/>
      <point x="384" y="261" type="qcurve" smooth="yes" name="inserted"/>
      <point x="355" y="215"/>
      <point x="281" y="126"/>
      <point x="241" y="81" type="qcurve"/>
      <point x="405" y="81" type="line"/>
      <point x="405" y="174" type="line"/>
      <point x="484" y="174" type="line"/>
    </contour>
  </outline>
</glyph>
<glyph name="three" format="2">
  <advance width="434"/>
  <unicode hex="0033"/>
  <outline>
    <contour>
      <point x="321" y="56" type="qcurve" smooth="yes" name="inserted"/>
      <point x="291" y="26"/>
      <point x="212" y="-8"/>
      <point x="167" y="-8" type="qcurve" smooth="yes"/>
      <point x="119" y="-8"/>
      <point x="37" y="31"/>
      <point x="7" y="63" type="qcurve"/>
      <point x="68" y="120" type="line"/>
      <point x="86" y="98"/>
      <point x="137" y="73"/>
      <point x="167" y="73" type="qcurve" smooth="yes"/>
      <point x="195" y="73"/>
      <point x="244" y="95"/>
      <point x="263" y="114" type="qcurve" smooth="yes" name="inserted"/>
      <point x="281" y="132"/>
      <point x="303" y="181"/>
      <point x="303" y="209" type="qcurve" smooth="yes"/>
      <point x="303" y="237"/>
      <point x="281" y="286"/>
      <point x="263" y="304" type="qcurve" smooth="yes" name="inserted"/>
      <point x="244" y="322"/>
      <point x="195" y="343"/>
      <point x="167" y="343" type="qcurve" smooth="yes"/>
      <point x="149" y="343" name="inserted"/>
      <point x="117" y="335"/>
      <point x="102" y="326" type="qcurve"/>
      <point x="241" y="568" type="line"/>
      <point x="130" y="568" type="line"/>
      <point x="130" y="521" type="line"/>
      <point x="51" y="521" type="line"/>
      <point x="51" y="650" type="line"/>
      <point x="380" y="650" type="line"/>
      <point x="237" y="412" type="line"/>
      <point x="270" y="400"/>
      <point x="324" y="361"/>
      <point x="344" y="335" type="qcurve" smooth="yes" name="inserted"/>
      <point x="364" y="309"/>
      <point x="386" y="245"/>
      <point x="386" y="209" type="qcurve" smooth="yes"/>
      <point x="386" y="164"/>
      <point x="351" y="85"/>
    </contour>
  </outline>
</glyph>
<glyph name="four" format="2">
  <advance width="553"/>
  <unicode hex="0034"/>
  <outline>
    <contour>
      <point x="479" y="0" type="line"/>
      <point x="237" y="0" type="line"/>
      <point x="237" y="79" type="line"/>
      <point x="312" y="79" type="line"/>
      <point x="312" y="183" type="line"/>
      <point x="30" y="183" type="line"/>
      <point x="396" y="658" type="line"/>
      <point x="396" y="264" type="line"/>
      <point x="493" y="264" type="line"/>
      <point x="493" y="183" type="line"/>
      <point x="396" y="183" type="line"/>
      <point x="396" y="79" type="line"/>
      <point x="479" y="79" type="line"/>
    </contour>
    <contour>
      <point x="312" y="413" type="line"/>
      <point x="198" y="264" type="line"/>
      <point x="312" y="264" type="line"/>
    </contour>
  </outline>
</glyph>
<glyph name="five" format="2">
  <advance width="490"/>
  <unicode hex="0035"/>
  <outline>
    <contour>
      <point x="354" y="56" type="qcurve" smooth="yes" name="inserted"/>
      <point x="324" y="26"/>
      <point x="245" y="-8"/>
      <point x="200" y="-8" type="qcurve" smooth="yes"/>
      <point x="156" y="-8"/>
      <point x="79" y="24"/>
      <point x="50" y="53" type="qcurve"/>
      <point x="111" y="109" type="line"/>
      <point x="128" y="92"/>
      <point x="174" y="73"/>
      <point x="200" y="73" type="qcurve" smooth="yes"/>
      <point x="228" y="73"/>
      <point x="277" y="95"/>
      <point x="296" y="114" type="qcurve" smooth="yes" name="inserted"/>
      <point x="314" y="132"/>
      <point x="336" y="181"/>
      <point x="336" y="209" type="qcurve" smooth="yes"/>
      <point x="336" y="237"/>
      <point x="314" y="286"/>
      <point x="296" y="304" type="qcurve" smooth="yes" name="inserted"/>
      <point x="277" y="322"/>
      <point x="228" y="343"/>
      <point x="200" y="343" type="qcurve" smooth="yes"/>
      <point x="165" y="343"/>
      <point x="107" y="320"/>
      <point x="90" y="292" type="qcurve"/>
      <point x="90" y="650" type="line"/>
      <point x="377" y="650" type="line"/>
      <point x="377" y="521" type="line"/>
      <point x="298" y="521" type="line"/>
      <point x="298" y="569" type="line"/>
      <point x="174" y="569" type="line"/>
      <point x="174" y="422" type="line"/>
      <point x="180" y="423"/>
      <point x="193" y="424"/>
      <point x="200" y="424" type="qcurve" smooth="yes"/>
      <point x="245" y="424"/>
      <point x="324" y="391"/>
      <point x="354" y="362" type="qcurve" smooth="yes" name="inserted"/>
      <point x="384" y="332"/>
      <point x="419" y="254"/>
      <point x="419" y="209" type="qcurve" smooth="yes"/>
      <point x="419" y="164"/>
      <point x="384" y="85"/>
    </contour>
  </outline>
</glyph>
<glyph name="seven" format="2">
  <advance width="469"/>
  <unicode hex="0037"/>
  <outline>
    <contour>
      <point x="154" y="0" type="line"/>
      <point x="59" y="0" type="line"/>
      <point x="316" y="568" type="line"/>
      <point x="112" y="568" type="line"/>
      <point x="112" y="521" type="line"/>
      <point x="33" y="521" type="line"/>
      <point x="33" y="650" type="line"/>
      <point x="446" y="650" type="line"/>
    </contour>
  </outline>
</glyph>
<glyph name="eight" format="2">
  <advance width="536"/>
  <unicode hex="0038"/>
  <outline>
    <contour>
      <point x="194" y="498" type="qcurve" smooth="yes"/>
      <point x="194" y="480"/>
      <point x="209" y="450"/>
      <point x="221" y="440" type="qcurve" smooth="yes"/>
      <point x="231" y="433"/>
      <point x="255" y="424"/>
      <point x="269" y="424" type="qcurve" smooth="yes"/>
      <point x="284" y="424"/>
      <point x="310" y="433"/>
      <point x="319" y="442" type="qcurve" smooth="yes"/>
      <point x="331" y="452"/>
      <point x="344" y="481"/>
      <point x="344" y="498" type="qcurve" smooth="yes"/>
      <point x="344" y="514"/>
      <point x="332" y="544"/>
      <point x="321" y="555" type="qcurve" smooth="yes"/>
      <point x="311" y="565"/>
      <point x="285" y="577"/>
      <point x="269" y="577" type="qcurve" smooth="yes"/>
      <point x="254" y="577"/>
      <point x="226" y="564"/>
      <point x="216" y="554" type="qcurve" smooth="yes"/>
      <point x="206" y="543"/>
      <point x="194" y="514"/>
    </contour>
    <contour>
      <point x="174" y="114" type="qcurve" smooth="yes" name="inserted"/>
      <point x="192" y="95"/>
      <point x="240" y="73"/>
      <point x="267" y="73" type="qcurve" smooth="yes"/>
      <point x="295" y="73"/>
      <point x="344" y="95"/>
      <point x="363" y="114" type="qcurve" smooth="yes" name="inserted"/>
      <point x="381" y="132"/>
      <point x="403" y="181"/>
      <point x="403" y="209" type="qcurve" smooth="yes"/>
      <point x="403" y="236"/>
      <point x="382" y="284"/>
      <point x="365" y="302" type="qcurve" smooth="yes" name="inserted"/>
      <point x="347" y="320"/>
      <point x="299" y="342"/>
      <point x="272" y="343" type="qcurve" smooth="yes"/>
      <point x="243" y="343"/>
      <point x="193" y="322"/>
      <point x="175" y="304" type="qcurve" smooth="yes" name="inserted"/>
      <point x="157" y="286"/>
      <point x="136" y="237"/>
      <point x="136" y="209" type="qcurve" smooth="yes"/>
      <point x="136" y="181"/>
      <point x="156" y="132"/>
    </contour>
    <contour>
      <point x="421" y="56" type="qcurve" smooth="yes" name="inserted"/>
      <point x="391" y="26"/>
      <point x="312" y="-8"/>
      <point x="267" y="-8" type="qcurve" smooth="yes"/>
      <point x="222" y="-8"/>
      <point x="143" y="26"/>
      <point x="114" y="56" type="qcurve" smooth="yes" name="inserted"/>
      <point x="84" y="85"/>
      <point x="50" y="164"/>
      <point x="50" y="209" type="qcurve" smooth="yes"/>
      <point x="50" y="244"/>
      <point x="71" y="308"/>
      <point x="90" y="334" type="qcurve" smooth="yes"/>
      <point x="103" y="351"/>
      <point x="134" y="380"/>
      <point x="152" y="391" type="qcurve"/>
      <point x="132" y="411"/>
      <point x="109" y="466"/>
      <point x="109" y="498" type="qcurve" smooth="yes"/>
      <point x="109" y="531"/>
      <point x="134" y="589"/>
      <point x="156" y="611" type="qcurve" smooth="yes" name="inserted"/>
      <point x="177" y="633"/>
      <point x="234" y="658"/>
      <point x="267" y="658" type="qcurve" smooth="yes"/>
      <point x="300" y="658"/>
      <point x="358" y="633"/>
      <point x="380" y="611" type="qcurve" smooth="yes" name="inserted"/>
      <point x="402" y="589"/>
      <point x="427" y="531"/>
      <point x="427" y="498" type="qcurve" smooth="yes"/>
      <point x="427" y="466"/>
      <point x="403" y="411"/>
      <point x="383" y="391" type="qcurve"/>
      <point x="400" y="380"/>
      <point x="430" y="354"/>
      <point x="442" y="338" type="qcurve" smooth="yes"/>
      <point x="462" y="311"/>
      <point x="486" y="246"/>
      <point x="486" y="209" type="qcurve" smooth="yes"/>
      <point x="486" y="164"/>
      <point x="451" y="85"/>
    </contour>
  </outline>
</glyph>
<glyph name="nine" format="2">
  <advance width="525"/>
  <unicode hex="0039"/>
  <outline>
    <contour>
      <point x="169" y="324" type="qcurve" smooth="yes" name="inserted"/>
      <point x="187" y="306"/>
      <point x="236" y="285"/>
      <point x="264" y="285" type="qcurve" smooth="yes"/>
      <point x="291" y="285"/>
      <point x="339" y="306"/>
      <point x="357" y="324" type="qcurve" smooth="yes" name="inserted"/>
      <point x="375" y="342"/>
      <point x="395" y="391"/>
      <point x="395" y="419" type="qcurve" smooth="yes"/>
      <point x="395" y="447"/>
      <point x="375" y="496"/>
      <point x="357" y="515" type="qcurve" smooth="yes" name="inserted"/>
      <point x="339" y="533"/>
      <point x="291" y="555"/>
      <point x="264" y="555" type="qcurve" smooth="yes"/>
      <point x="236" y="555"/>
      <point x="187" y="533"/>
      <point x="169" y="515" type="qcurve" smooth="yes" name="inserted"/>
      <point x="150" y="496"/>
      <point x="128" y="447"/>
      <point x="128" y="419" type="qcurve" smooth="yes"/>
      <point x="128" y="391"/>
      <point x="150" y="342"/>
    </contour>
    <contour>
      <point x="369" y="176" type="qcurve" smooth="yes" name="inserted"/>
      <point x="320" y="122"/>
      <point x="204" y="30"/>
      <point x="150" y="-9" type="qcurve"/>
      <point x="137" y="7"/>
      <point x="111" y="39"/>
      <point x="98" y="55" type="qcurve"/>
      <point x="145" y="86"/>
      <point x="217" y="142"/>
      <point x="245" y="167" type="qcurve" smooth="yes"/>
      <point x="256" y="177"/>
      <point x="278" y="197"/>
      <point x="288" y="207" type="qcurve"/>
      <point x="281" y="205"/>
      <point x="269" y="204"/>
      <point x="264" y="204" type="qcurve" smooth="yes"/>
      <point x="219" y="204"/>
      <point x="140" y="237"/>
      <point x="110" y="267" type="qcurve" smooth="yes" name="inserted"/>
      <point x="80" y="296"/>
      <point x="45" y="374"/>
      <point x="45" y="419" type="qcurve" smooth="yes"/>
      <point x="45" y="464"/>
      <point x="80" y="543"/>
      <point x="110" y="573" type="qcurve" smooth="yes" name="inserted"/>
      <point x="140" y="602"/>
      <point x="219" y="636"/>
      <point x="264" y="636" type="qcurve" smooth="yes"/>
      <point x="309" y="636"/>
      <point x="388" y="601"/>
      <point x="418" y="572" type="qcurve" smooth="yes" name="inserted"/>
      <point x="447" y="542"/>
      <point x="481" y="463"/>
      <point x="481" y="419" type="qcurve" smooth="yes"/>
      <point x="481" y="351"/>
      <point x="418" y="229"/>
    </contour>
  </outline>
</glyph>
<glyph name="V" format="2">
  <advance width="810"/>
  <unicode hex="0056"/>
  <outline>
    <contour>
      <point x="676" y="621" type="line"/>
      <point x="607" y="456"/>
      <point x="468" y="133"/>
      <point x="399" y="-32" type="qcurve"/>
      <point x="330" y="133"/>
      <point x="191" y="456"/>
      <point x="122" y="621" type="qcurve"/>
      <point x="35" y="621" type="line"/>
      <point x="35" y="700" type="line"/>
      <point x="277" y="700" type="line"/>
      <point x="277" y="621" type="line"/>
      <point x="215" y="621" type="line"/>
      <point x="262" y="512"/>
      <point x="343" y="294"/>
      <point x="390" y="185" type="qcurve"/>
      <point x="399" y="152" type="line"/>
      <point x="408" y="185" type="line"/>
      <point x="455" y="294"/>
      <point x="536" y="511"/>
      <point x="582" y="621" type="qcurve"/>
      <point x="533" y="621" type="line"/>
      <point x="533" y="700" type="line"/>
      <point x="775" y="700" type="line"/>
      <point x="775" y="621" type="line"/>
    </contour>
  </outline>
</glyph>
<glyph name="Y" format="2">
  <advance width="789"/>
  <unicode hex="0059"/>
  <outline>
    <contour>
      <point x="519" y="0" type="line"/>
      <point x="277" y="0" type="line"/>
      <point x="277" y="79" type="line"/>
      <point x="354" y="79" type="line"/>
      <point x="354" y="270" type="line"/>
      <point x="301" y="358"/>
      <point x="188" y="533"/>
      <point x="136" y="621" type="qcurve"/>
      <point x="35" y="621" type="line"/>
      <point x="35" y="700" type="line"/>
      <point x="277" y="700" type="line"/>
      <point x="277" y="621" type="line"/>
      <point x="227" y="621" type="line"/>
      <point x="264" y="560"/>
      <point x="346" y="428"/>
      <point x="383" y="367" type="qcurve"/>
      <point x="394" y="336" type="line"/>
      <point x="395" y="336" type="line"/>
      <point x="407" y="367" type="line"/>
      <point x="561" y="621" type="line"/>
      <point x="512" y="621" type="line"/>
      <point x="512" y="700" type="line"/>
      <point x="754" y="700" type="line"/>
      <point x="754" y="621" type="line"/>
      <point x="653" y="621" type="line"/>
      <point x="601" y="533"/>
      <point x="488" y="357"/>
      <point x="436" y="269" type="qcurve"/>
      <point x="436" y="79" type="line"/>
      <point x="519" y="79" type="line"/>
    </contour>
  </outline>
</glyph>
<glyph name="backslash" format="2">
  <advance width="385"/>
  <unicode hex="005C"/>
  <outline>
    <contour>
      <point x="342" y="-19" type="qcurve"/>
      <point x="248" y="-19" type="line"/>
      <point x="178" y="171"/>
      <point x="40" y="546"/>
      <point x="-30" y="736" type="qcurve"/>
      <point x="64" y="736" type="line"/>
      <point x="134" y="546"/>
      <point x="272" y="171"/>
    </contour>
  </outline>
</glyph>
<glyph name="grave" format="2">
  <advance width="200"/>
  <unicode hex="0060"/>
  <outline>
    <contour>
      <point x="123" y="479" type="qcurve"/>
      <point x="64" y="479" type="line"/>
      <point x="35" y="512"/>
      <point x="-22" y="579"/>
      <point x="-51" y="612" type="qcurve"/>
      <point x="33" y="612" type="line"/>
      <point x="56" y="579"/>
      <point x="100" y="512"/>
    </contour>
  </outline>
</glyph>
<glyph name="l" format="2">
  <advance width="292"/>
  <unicode hex="006C"/>
  <outline>
    <contour>
      <point x="257" y="0" type="line"/>
      <point x="35" y="0" type="line"/>
      <point x="35" y="79" type="line"/>
      <point x="111" y="79" type="line"/>
      <point x="111" y="671" type="line"/>
      <point x="45" y="671" type="line"/>
      <point x="45" y="750" type="line"/>
      <point x="194" y="750" type="line"/>
      <point x="194" y="79" type="line"/>
      <point x="257" y="79" type="line"/>
    </contour>
  </outline>
</glyph>
<glyph name="r" format="2">
  <advance width="370"/>
  <unicode hex="0072"/>
  <outline>
    <contour>
      <point x="257" y="0" type="line"/>
      <point x="35" y="0" type="line"/>
      <point x="35" y="79" type="line"/>
      <point x="111" y="79" type="line"/>
      <point x="111" y="296" type="line"/>
      <point x="45" y="296" type="line"/>
      <point x="45" y="375" type="line"/>
      <point x="184" y="375" type="line"/>
      <point x="188" y="323" type="line" smooth="yes"/>
      <point x="190" y="299"/>
      <point x="189" y="303"/>
      <point x="191" y="279" type="qcurve"/>
      <point x="203" y="304"/>
      <point x="240" y="343"/>
      <point x="260" y="356" type="qcurve" smooth="yes" name="inserted"/>
      <point x="281" y="370"/>
      <point x="320" y="384"/>
      <point x="335" y="384" type="qcurve"/>
      <point x="329" y="289" type="line"/>
      <point x="304" y="289"/>
      <point x="261" y="277"/>
      <point x="245" y="266" type="qcurve" smooth="yes"/>
      <point x="221" y="250"/>
      <point x="194" y="200"/>
      <point x="194" y="169" type="qcurve" smooth="yes"/>
      <point x="194" y="79" type="line"/>
      <point x="257" y="79" type="line"/>
    </contour>
  </outline>
</glyph>
<glyph name="t" format="2">
  <advance width="335"/>
  <unicode hex="0074"/>
  <outline>
    <contour>
      <point x="277" y="0" type="line"/>
      <point x="119" y="0" type="line"/>
      <point x="119" y="294" type="line"/>
      <point x="35" y="294" type="line"/>
      <point x="35" y="375" type="line"/>
      <point x="119" y="375" type="line"/>
      <point x="119" y="619" type="line"/>
      <point x="202" y="619" type="line"/>
      <point x="202" y="375" type="line"/>
      <point x="300" y="375" type="line"/>
      <point x="300" y="294" type="line"/>
      <point x="202" y="294" type="line"/>
      <point x="202" y="79" type="line"/>
      <point x="277" y="79" type="line"/>
    </contour>
  </outline>
</glyph>
<glyph name="endash" format="2">
  <advance width="509"/>
  <unicode hex="2013"/>
  <outline>
    <contour>
      <point x="401" y="174" type="line"/>
      <point x="100" y="174" type="line"/>
      <point x="100" y="255" type="line"/>
      <point x="401" y="255" type="line"/>
    </contour>
  </outline>
</glyph>
<glyph name="fraction" format="2">
  <advance width="382"/>
  <unicode hex="2044"/>
  <outline>
    <contour>
      <point x="9" y="0" type="line"/>
      <point x="287" y="755" type="line"/>
      <point x="373" y="755" type="line"/>
      <point x="95" y="0" type="line"/>
    </contour>
  </outline>
</glyph>
<glyph name="minus" format="2">
  <advance width="524"/>
  <unicode hex="2212"/>
  <outline>
    <contour>
      <point x="442" y="190" type="line"/>
      <point x="82" y="190" type="line"/>
      <point x="82" y="271" type="line"/>
      <point x="442" y="271" type="line"/>
    </contour>
  </outline>
</glyph>
<glyph name="divisionslash" format="2">
  <advance width="310"/>
  <unicode hex="2215"/>
  <outline>
    <contour>
      <point x="95" y="-19" type="line"/>
      <point x="9" y="-19" type="line"/>
      <point x="287" y="735" type="line"/>
      <point x="373" y="735" type="line"/>
    </contour>
  </outline>
</glyph>
